<?xml version="1.0" encoding="utf-8"?>
<svg width="512" height="512" viewBox="0 0 512 512" xmlns="http://www.w3.org/2000/svg" fill="none">
  <g transform="matrix(1.175119, 0, 0, 1.19024, -34.652424, -102.828995)" style="">
    <rect x="407.986" y="233.314" width="18" height="70" rx="8" fill="#D9A441"/>
    <path d="M 378.749 187.24 L 456.749 187.24 L 438.749 237.24 L 396.749 237.24 L 378.749 187.24 Z" fill="#F2C35C" style="transform-box: fill-box; transform-origin: 50% 50%;" transform="matrix(-0.999994, 0.003544, -0.003544, -0.999994, -0.000031, -0.000014)"/>
  </g>
  <g transform="matrix(1, 0, 0, 1, 1.098151, -43.746799)">
    <path d="M 36.448 374.075 C 36.448 351.77 66.697 332.897 102.445 332.897 L 410.432 332.897 C 446.182 332.897 476.43 351.77 476.43 374.075 L 476.43 399.812 C 476.43 418.685 451.681 434.127 421.432 434.127 L 91.446 434.127 C 61.198 434.127 36.448 418.685 36.448 399.812 L 36.448 374.075 Z" fill="#F3B36A" style=""/>
    <path d="M 107.019 255.616 C 107.019 229.43 128.171 208.007 154.024 208.007 L 360.844 208.007 C 386.697 208.007 407.849 229.43 407.849 255.616 L 407.849 338.932 L 107.019 338.932 L 107.019 255.616 Z" fill="#F6C183" style=""/>
    <path d="M 9.176 340.954 C 9.176 317.149 27.752 298.105 50.968 298.105 L 74.186 298.105 C 85.794 298.105 95.082 307.627 95.082 319.53 L 95.082 412.369 C 95.082 424.271 85.794 433.792 74.186 433.792 L 50.968 433.792 C 27.752 433.792 9.176 414.748 9.176 390.944 L 9.176 340.954 Z" fill="#F2AD5C" style=""/>
    <path d="M 500.352 338.535 C 500.352 314.731 482.522 295.687 460.235 295.687 L 437.945 295.687 C 426.802 295.687 417.886 305.208 417.886 317.11 L 417.886 409.949 C 417.886 421.852 426.802 431.374 437.945 431.374 L 460.235 431.374 C 482.522 431.374 500.352 412.33 500.352 388.526 L 500.352 338.535 Z" fill="#F2AD5C" style=""/>
    <rect x="107.85" y="273.257" width="75.207" height="76.175" rx="10" fill="#7DB7D8" style=""/>
    <rect x="331.883" y="276.286" width="75.207" height="76.175" rx="10" fill="#F4A3A3" style=""/>
    <rect x="223.732" y="275.228" width="75.207" height="76.175" rx="10" fill="#FFD98E" style=""/>
    <path d="M 120.525 397.185 L 393.152 397.185 C 407.254 397.185 419.005 409.088 419.005 423.371 L 419.005 432.893 L 94.672 432.893 L 94.672 423.371 C 94.672 409.088 106.423 397.185 120.525 397.185 Z" fill="#E69E4E" style=""/>
    <rect x="126.145" y="432.95" width="18.802" height="33.327" rx="6" fill="#B87333" style=""/>
    <rect x="373.268" y="432.238" width="18.802" height="33.327" rx="6" fill="#B87333" style=""/>
  </g>
</svg>