<?xml version="1.0" encoding="utf-8"?>
<svg width="512" height="512" viewBox="0 0 512 512" xmlns="http://www.w3.org/2000/svg" fill="none">
  <defs>
    <linearGradient id="bg" x1="0" y1="0" x2="0" y2="1">
      <stop offset="0" stop-color="#F6D0AD"/>
      <stop offset="1" stop-color="#F1C3A0"/>
    </linearGradient>
  </defs>
  <rect width="512" height="512" fill="url(#bg)"/>
  <path d="M 38.534 129.881 C 38.534 111.881 54.534 97.881 74.534 97.881 C 86.534 97.881 96.534 103.881 102.534 111.881 C 106.534 107.881 112.534 105.881 118.534 105.881 C 136.534 105.881 150.534 119.881 150.534 137.881 C 150.534 155.881 136.534 169.881 118.534 169.881 L 74.534 169.881 C 54.534 169.881 38.534 155.881 38.534 137.881 L 38.534 129.881 Z" fill="#FFFFFF" opacity="0.85"/>
  <path d="M 353.934 80.527 C 353.934 66.527 365.934 54.527 379.934 54.527 C 389.934 54.527 397.934 58.527 401.934 64.527 C 405.934 61.527 409.934 60.527 415.934 60.527 C 429.934 60.527 441.934 72.527 441.934 86.527 C 441.934 100.527 429.934 112.527 415.934 112.527 L 379.934 112.527 C 365.934 112.527 353.934 100.527 353.934 86.527 L 353.934 80.527 Z" fill="#FFFFFF" opacity="0.85"/>
  <path d="M 0.276 432.508 C 70.612 393.096 211.281 393.096 256.997 393.096 C 302.716 393.096 443.385 393.096 513.719 432.508 L 513.719 511.332 L 0.276 511.332 L 0.276 432.508 Z" fill="#6CC17A" style=""/>
  <path d="M 123.465 287.543 L 261.533 200.17 L 399.598 287.543 L 399.598 476.85 L 123.465 476.85 L 123.465 287.543 Z" fill="#FFF4EA" style=""/>
  <path d="M 99.712 303.447 L 261.329 184.999 L 422.95 303.447 L 403.556 324.178 L 261.329 229.417 L 119.105 324.178 L 99.712 303.447 Z" fill="#E18A4B" style=""/>
  <rect x="334.711" y="202.216" width="28.871" height="58.408" rx="1.355" style="fill: rgb(225, 138, 75);" ry="1.355"/>
  <rect x="231.139" y="336.917" width="62.898" height="113.959" rx="2.011" fill="#C56A3A" style="" ry="2.011"/>
  <rect x="-308.63" y="449.588" width="90.968" height="8.022" fill="#9E4E25" style="" transform="matrix(-1, 0, 0, 1, 0, 0)"/>
  <rect x="322.679" y="336.555" width="47.686" height="66.299" rx="4" fill="#78AFCB" style="stroke-width: 1.066;"/>
  <rect x="152.422" y="337.157" width="47.686" height="66.299" rx="4" fill="#78AFCB" style="stroke-width: 1.066;"/>
  <path d="M -6.308 492.801 C 63.508 464.437 208.118 459.033 253.495 459.033 C 298.874 459.033 459.404 470.125 529.215 498.487 L 509.694 515.956 L 0.058 515.956 L -6.308 492.801 Z" style="stroke-width: 1; fill: rgb(254, 248, 242);"/>
</svg>