<?xml version="1.0" encoding="utf-8"?>
<svg width="512" height="512" viewBox="0 0 512 512" xmlns="http://www.w3.org/2000/svg" fill="none">
  <g transform="matrix(1.388904, 0, 0, 1.402287, -140.588867, -155.905716)" style="">
    <rect x="310" y="200" width="150" height="200" rx="10" fill="#FFFFFF"/>
    <rect x="310" y="200" width="150" height="200" rx="10" stroke="#E2B18A" stroke-width="6"/>
    <rect x="340" y="240" width="90" height="10" rx="5" fill="#D6D6D6"/>
    <rect x="340" y="265" width="70" height="10" rx="5" fill="#E0E0E0"/>
    <rect x="340" y="290" width="80" height="10" rx="5" fill="#E0E0E0"/>
    <rect x="340" y="315" width="60" height="10" rx="5" fill="#E0E0E0"/>
  </g>
  <rect x="6.111" y="346.125" width="275.019" height="68.826" rx="16" fill="#C9824A" style=""/>
  <rect x="21.39" y="316.158" width="244.461" height="44.949" rx="14" fill="#E0A165" style=""/>
  <g transform="matrix(1.354891, 0, 0, 1.349311, -136.949875, -99.781349)" style="">
    <path d="M 139.087 248.817 C 126.916 221.025 143.824 202.978 150 200 L 220 154 C 236 144 258 148 268 164 L 284 190 C 294 206 290 228 274 238 L 204 284 C 188 294 166 290 156 274 L 139.087 248.817 Z" fill="#C7773A" style="transform-origin: 211.379px 219px;" transform="matrix(0.926391, -0.376564, 0.376564, 0.926391, 0.000003, 0.000004)"/>
    <path d="M 163.66 213.107 L 225.436 170.951 C 235.732 164.627 250.147 166.735 256.324 177.274 L 266.62 194.137 C 272.798 204.676 270.738 219.43 260.443 225.754 L 198.667 267.91 C 188.371 274.233 173.956 272.126 167.779 261.587 L 157.483 244.724 C 150.341 233.819 151.779 218.827 163.66 213.107 Z" fill="#E0A165" style="transform-origin: 213.021px 220.019px;" transform="matrix(0.93468, -0.355491, 0.355491, 0.93468, -0.000001, -0.000002)"/>
    <rect x="250" y="230" width="210" height="24" rx="12" transform="matrix(0.819152, 0.573576, -0.573576, 0.819152, 178.594025, -98.248581)" fill="#C7773A"/>
    <rect x="243.47" y="235" width="190.957" height="12" rx="6" transform="matrix(0.819152, 0.573576, -0.573576, 0.819152, 191.574417, -87.983253)" fill="#E6AD72" style=""/>
  </g>
</svg>