<?xml version="1.0" encoding="utf-8"?>
<svg width="512" height="512" viewBox="0 0 512 512" xmlns="http://www.w3.org/2000/svg" fill="none">
  <g transform="matrix(1.250929, 0, 0, 1.248319, -25.565737, -60.426407)" style="">
    <path d="M 333.408 212.87 L 333.408 302.87 L 357.408 302.87 L 357.408 202.87 L 333.408 212.87 Z" style="transform-origin: 352.255px 234.138px; fill: rgb(242, 178, 107);" transform="matrix(0.990162, 0.139923, -0.139923, 0.990162, 0, 0.000004)"/>
    <path d="M 343.39 238.8 C 331.39 228.8 331.39 210.8 343.39 200.8 L 367.39 180.8 C 377.39 172.8 393.39 178.8 393.39 192.8 L 377.39 220.8 C 373.39 228.8 363.39 230.8 355.39 226.8 L 343.39 238.8 Z" style="transform-origin: 352.256px 234.138px; fill: rgb(242, 178, 107);" transform="matrix(0.961464, -0.27493, 0.27493, 0.961464, -0.000001, -0.000003)"/>
  </g>
  <g transform="matrix(1.250929, 0, 0, 1.248319, -25.565737, -60.426407)" style="">
    <path d="M 250.788 179.618 C 250.788 165.618 257.248 153.618 265 153.618 C 272.752 153.618 279.212 165.618 279.212 179.618 L 279.212 289.618 L 250.788 289.618 L 250.788 179.618 Z" style="transform-origin: 263.191px 218.693px; fill: rgb(176, 184, 194);" transform="matrix(0.991476, -0.13029, 0.13029, 0.991476, 0, -0.000003)"/>
    <path d="M 205.465 240.351 C 183.251 226.297 191.581 193.504 227.68 193.504 L 244.341 193.504 L 244.341 240.351 L 205.465 240.351 Z" fill="#FFD6A3" style="transform-origin: 263.191px 218.693px;" transform="matrix(0.169577, 0.985517, -0.985517, 0.169577, -0.00002, 0.000017)"/>
  </g>
  <g transform="matrix(1.250929, 0, 0, 1.248319, -25.565737, -55.53257)" style="">
    <path d="M 297.172 138.663 C 297.172 126.663 304.545 116.663 313.393 116.663 C 322.24 116.663 329.613 126.663 329.613 138.663 L 329.613 278.663 L 297.172 278.663 L 297.172 138.663 Z" fill="#7B8D9E" style="transform-origin: 314.483px 196.706px;" transform="matrix(0.991976, 0.126424, -0.126424, 0.991976, 0, 0.000001)"/>
    <path d="M 282.483 114.748 L 346.483 114.748 C 356.483 114.748 364.483 119.941 364.483 126.431 L 364.483 132.922 L 264.483 132.922 L 264.483 126.431 C 264.483 119.941 272.483 114.748 282.483 114.748 Z" fill="#B0B8C2" style="transform-origin: 314.483px 196.706px;" transform="matrix(0.991976, 0.126424, -0.126424, 0.991976, 0, 0.000001)"/>
  </g>
  <circle cx="346.125" cy="334.791" r="8" style="fill: rgb(176, 184, 194);" transform="matrix(1.250929, 0, 0, 1.248319, -0.568517, -62.372578)"/>
  <polygon points="492.131 55.636 474.792 70.043 476.886 89.363 465.925 73.301 443.365 73.554 460.704 59.147 458.61 39.827 469.571 55.889" fill="#FFD86B" style="transform-origin: 472.154px 72.097px;"/>
  <path d="M 56.142 181.889 L 227.455 183.013 L 227.717 239.55 L 227.717 412.533 L 56.142 412.533 L 56.142 181.889 Z" fill="#FFFFFF" style="stroke-width: 1.265;"/>
  <rect x="83.249" y="229.088" width="117.959" height="14.415" rx="5" fill="#D6D6D6" style="stroke-width: 1.265;"/>
  <rect x="83.249" y="265.126" width="119.595" height="14.415" rx="5" fill="#E0E0E0" style="stroke-width: 1.265;"/>
  <rect x="83.249" y="301.164" width="119.825" height="14.415" rx="5" fill="#E0E0E0" style="stroke-width: 1.265;"/>
  <path d="M 98.787 312.631 C 98.787 280.175 126.307 252.712 158.831 252.712 L 439.039 252.712 C 471.563 252.712 499.084 280.175 499.084 312.631 L 499.084 412.497 C 499.084 439.96 476.567 462.429 449.047 462.429 L 148.824 462.429 C 121.303 462.429 98.787 439.96 98.787 412.497 L 98.787 312.631 Z" fill="#F3B26B" style=""/>
  <path d="M 146.098 294.781 C 146.098 272.312 163.611 254.835 186.128 254.835 L 416.299 254.835 C 438.815 254.835 456.328 272.312 456.328 294.781 L 456.328 339.721 L 146.098 339.721 L 146.098 294.781 Z" fill="#FFD18A" style=""/>
  <rect x="261.407" y="312.631" width="62.546" height="74.899" rx="8" style="fill: rgb(224, 164, 92);"/>
  <rect x="131.705" y="388.947" width="90.946" height="94.535" rx="8" fill="#7FCFC4" style=""/>
  <rect x="10.974" y="348.887" width="110.718" height="114.832" rx="8" style="fill: rgb(255, 216, 107);"/>
</svg>